<svg width="165" height="165" viewBox="0 0 165 165" fill="none" xmlns="http://www.w3.org/2000/svg">
<circle opacity="0.7" cx="82.5" cy="82.5" r="82.5" fill="url(#paint0_linear)"/>
<path d="M137.501 43.5322L133.288 42.1293L135.275 38.159L128.675 31.5595L124.705 33.5455L123.302 29.3333H113.97L112.567 33.5455L108.597 31.5595L101.997 38.159L103.983 42.1293L99.7695 43.5322V52.8638L103.982 54.2667L101.996 58.2371L108.595 64.8366L112.566 62.8506L113.968 67.0645H123.3L124.703 62.8523L128.673 64.8383L135.273 58.2388L133.287 54.2685L137.501 52.8656V43.5322ZM134.071 50.3924L130.133 51.7045L129.845 52.4642C129.761 52.6855 129.673 52.8999 129.581 53.1125L129.248 53.8551L131.102 57.5631L127.999 60.6656L124.291 58.8116L123.549 59.1444C123.336 59.2387 123.122 59.3244 122.9 59.4085L122.141 59.6966L120.829 63.6344H116.44L115.128 59.6966L114.368 59.4085C114.147 59.3244 113.932 59.237 113.72 59.1444L112.977 58.8116L109.269 60.6656L106.167 57.5631L108.021 53.8551L107.688 53.1125C107.594 52.8999 107.508 52.6855 107.424 52.4642L107.136 51.7045L103.2 50.3924V46.0036L107.137 44.6916L107.426 43.9318C107.51 43.7106 107.597 43.4962 107.69 43.2836L108.022 42.5409L106.168 38.8347L109.271 35.7322L112.979 37.5862L113.721 37.2534C113.934 37.1591 114.149 37.0734 114.37 36.9893L115.13 36.7012L116.442 32.7634H120.83L122.142 36.7012L122.902 36.9893C123.123 37.0734 123.338 37.1608 123.55 37.2534L124.293 37.5862L128.001 35.7322L131.104 38.8347L129.25 42.5427L129.582 43.2853C129.677 43.4979 129.762 43.7123 129.846 43.9336L130.135 44.6933L134.071 46.0053V50.3924Z" fill="white"/>
<path d="M118.636 39.6237C113.907 39.6237 110.061 43.4706 110.061 48.199C110.061 52.9274 113.907 56.7742 118.636 56.7742C123.364 56.7742 127.211 52.9274 127.211 48.199C127.211 43.4706 123.364 39.6237 118.636 39.6237ZM118.636 53.3441C115.799 53.3441 113.491 51.0357 113.491 48.199C113.491 45.3623 115.799 43.0538 118.636 43.0538C121.473 43.0538 123.781 45.3623 123.781 48.199C123.781 51.0357 121.473 53.3441 118.636 53.3441Z" fill="white"/>
<path d="M66.672 106.761L60.0725 100.162L56.1021 102.148L54.6992 97.9355H45.3659L43.963 102.148L39.9926 100.162L33.3931 106.761L35.3792 110.731L31.167 112.134V121.466L35.3792 122.869L33.3931 126.839L39.9926 133.439L43.963 131.453L45.3659 135.667H54.6975L56.1004 131.454L60.0708 133.44L66.6703 126.841L64.6842 122.871L68.8981 121.468V112.136L64.686 110.733L66.672 106.761ZM65.468 114.607V118.996L61.5303 120.308L61.2421 121.068C61.1581 121.289 61.0706 121.504 60.978 121.716L60.6453 122.459L62.4993 126.167L59.3967 129.269L55.6888 127.415L54.9462 127.748C54.7335 127.843 54.5191 127.928 54.2979 128.012L53.5381 128.3L52.2261 132.237H47.8373L46.5253 128.299L45.7655 128.011C45.5443 127.927 45.3299 127.839 45.1172 127.746L44.3746 127.414L40.6684 129.268L37.5658 126.165L39.4198 122.457L39.0871 121.715C38.9928 121.502 38.907 121.288 38.823 121.066L38.5349 120.307L34.5971 118.995V114.606L38.5349 113.294L38.823 112.534C38.907 112.313 38.9945 112.098 39.0871 111.886L39.4198 111.143L37.5658 107.437L40.6684 104.334L44.3763 106.188L45.1189 105.856C45.3316 105.761 45.546 105.675 45.7672 105.591L46.527 105.303L47.839 101.366H52.2278L53.5398 105.303L54.2996 105.591C54.5209 105.675 54.7352 105.763 54.9479 105.856L55.6905 106.188L59.3985 104.334L62.501 107.437L60.647 111.145L60.9797 111.887C61.0741 112.1 61.1598 112.314 61.2439 112.536L61.532 113.295L65.468 114.607Z" fill="white"/>
<path d="M50.0333 108.226C45.3049 108.226 41.458 112.073 41.458 116.801C41.458 121.529 45.3049 125.376 50.0333 125.376C54.7617 125.376 58.6085 121.529 58.6085 116.801C58.6085 112.073 54.7617 108.226 50.0333 108.226ZM50.0333 121.946C47.1966 121.946 44.8881 119.638 44.8881 116.801C44.8881 113.964 47.1966 111.656 50.0333 111.656C52.87 111.656 55.1784 113.964 55.1784 116.801C55.1784 119.638 52.87 121.946 50.0333 121.946Z" fill="white"/>
<path d="M77.4743 93.219V97.9354C77.4743 100.772 79.7827 103.081 82.6194 103.081H86.0495C88.8862 103.081 91.1947 100.772 91.1947 97.9354V93.1487C91.1947 91.9824 91.7469 90.9311 92.6731 90.336C97.1168 87.4787 99.7699 82.6251 99.7699 77.3548C99.7699 72.9625 97.8902 68.7658 94.6145 65.8399C91.3422 62.9157 86.9431 61.5162 82.5423 62.0205C75.5929 62.806 69.9109 68.4056 69.0277 75.3327C68.261 81.3525 70.9451 87.11 76.0319 90.36C76.922 90.9277 77.4743 92.0236 77.4743 93.219ZM87.7646 97.9354C87.7646 98.8821 86.9962 99.6504 86.0495 99.6504H82.6194C81.6727 99.6504 80.9044 98.8821 80.9044 97.9354V96.2203H87.7646V97.9354ZM82.6194 77.3548C82.6194 76.408 83.3878 75.6397 84.3345 75.6397C85.2812 75.6397 86.0495 76.408 86.0495 77.3548C86.0495 78.3015 85.2812 79.0698 84.3345 79.0698C83.3878 79.0698 82.6194 78.3015 82.6194 77.3548ZM72.432 75.7666C73.1163 70.3882 77.5326 66.0388 82.9281 65.43C83.4049 65.3751 83.88 65.3477 84.3499 65.3477C87.3084 65.3477 90.1005 66.4059 92.3283 68.397C94.8769 70.6746 96.3398 73.9401 96.3398 77.3548C96.3398 81.4537 94.2749 85.2286 90.8191 87.4513C89.0046 88.6175 87.8966 90.5949 87.7869 92.7902H86.0495V82.1843C88.0407 81.4743 89.4796 79.5877 89.4796 77.3548C89.4796 74.5181 87.1712 72.2096 84.3345 72.2096C81.4978 72.2096 79.1893 74.5181 79.1893 77.3548C79.1893 79.5877 80.6283 81.4743 82.6194 82.1843V92.7902H80.8787C80.7517 90.5744 79.6593 88.6072 77.879 87.4684C73.9207 84.9404 71.8335 80.4573 72.432 75.7666Z" fill="white"/>
<path d="M122.728 76.1148C121.812 74.7445 120.282 73.9247 118.634 73.9247C116.986 73.9247 115.456 74.7445 114.54 76.1148L105.643 89.4597C105.166 90.1783 104.914 91.0118 104.914 91.8727C104.914 94.2687 106.866 96.2204 109.261 96.2204H111.774V109.941H82.6182V113.371H111.774C113.666 113.371 115.204 111.833 115.204 109.941V92.7903H109.261C108.756 92.7903 108.344 92.3787 108.344 91.8727C108.344 91.6909 108.397 91.5143 108.498 91.3634L117.396 78.0185C117.948 77.1885 119.322 77.1885 119.874 78.0185L128.772 91.3634C128.873 91.5143 128.926 91.6892 128.926 91.8727C128.925 92.3787 128.513 92.7903 128.007 92.7903H122.064V113.371C122.064 117.154 118.988 120.231 115.204 120.231H82.6182V123.661H115.204C120.879 123.661 125.494 119.046 125.494 113.371V96.2204H128.007C130.403 96.2204 132.355 94.2687 132.355 91.8727C132.355 91.0118 132.103 90.1783 131.624 89.4614L122.728 76.1148Z" fill="white"/>
<path d="M75.7598 120.231H79.1899V123.661H75.7598V120.231Z" fill="white"/>
<path d="M45.9391 88.885C46.8549 90.2553 48.3847 91.0751 50.0329 91.0751C51.6811 91.0751 53.2109 90.2553 54.1267 88.885L63.0244 75.5402C63.5012 74.8216 63.7533 73.9881 63.7533 73.1271C63.7533 70.7312 61.8016 68.7795 59.4057 68.7795H56.8931V55.059H86.049V51.6289H56.8931C55.0014 51.6289 53.463 53.1673 53.463 55.059V72.2096H59.4057C59.9116 72.2096 60.3232 72.6212 60.3232 73.1271C60.3232 73.3089 60.2701 73.4856 60.1689 73.6365L51.2712 86.9813C50.7189 87.8114 49.3452 87.8114 48.7929 86.9813L39.897 73.6365C39.7958 73.4856 39.7426 73.3106 39.7426 73.1271C39.7426 72.6212 40.1542 72.2096 40.6602 72.2096H46.6028V51.6289C46.6028 47.8455 49.6796 44.7687 53.463 44.7687H86.049V41.3386H53.463C47.7879 41.3386 43.1727 45.9538 43.1727 51.6289V68.7795H40.6602C38.2642 68.7795 36.3125 70.7312 36.3125 73.1271C36.3125 73.9881 36.5646 74.8216 37.0431 75.5385L45.9391 88.885Z" fill="white"/>
<path d="M89.4785 41.3386H92.9086V44.7687H89.4785V41.3386Z" fill="white"/>
<defs>
<linearGradient id="paint0_linear" x1="82.5" y1="0" x2="82.5" y2="165" gradientUnits="userSpaceOnUse">
<stop stop-color="white" stop-opacity="0.43"/>
<stop offset="1" stop-color="white" stop-opacity="0"/>
</linearGradient>
</defs>
</svg>
