<svg width="36" height="26" viewBox="0 0 36 26" fill="none" xmlns="http://www.w3.org/2000/svg">
<path d="M25.9168 8.56683L34.1707 2.78766C34.2894 2.70447 34.4287 2.65545 34.5733 2.64596C34.7179 2.63646 34.8624 2.66685 34.9909 2.73382C35.1195 2.80079 35.2272 2.90176 35.3023 3.02572C35.3774 3.14969 35.417 3.29189 35.4168 3.43683V22.5635C35.417 22.7084 35.3774 22.8506 35.3023 22.9746C35.2272 23.0986 35.1195 23.1995 34.9909 23.2665C34.8624 23.3335 34.7179 23.3639 34.5733 23.3544C34.4287 23.3449 34.2894 23.2959 34.1707 23.2127L25.9168 17.4335V24.0835C25.9168 24.5034 25.75 24.9062 25.4531 25.2031C25.1561 25.5 24.7534 25.6668 24.3335 25.6668H2.16683C1.7469 25.6668 1.34418 25.5 1.04724 25.2031C0.750311 24.9062 0.583496 24.5034 0.583496 24.0835V1.91683C0.583496 1.4969 0.750311 1.09418 1.04724 0.797244C1.34418 0.500311 1.7469 0.333496 2.16683 0.333496H24.3335C24.7534 0.333496 25.1561 0.500311 25.4531 0.797244C25.75 1.09418 25.9168 1.4969 25.9168 1.91683V8.56683ZM25.9168 13.5686L32.2502 18.0019V7.99683L25.9168 12.4302V13.567V13.5686ZM3.75016 3.50016V22.5002H22.7502V3.50016H3.75016ZM6.91683 6.66683H10.0835V9.8335H6.91683V6.66683Z" fill="white"/>
</svg>
