<svg width="162" height="162" viewBox="0 0 162 162" fill="none" xmlns="http://www.w3.org/2000/svg">
<circle opacity="0.7" cx="81" cy="81" r="81" fill="url(#paint0_linear)"/>
<path d="M52.2209 76.0857C51.2105 74.8072 49.7537 73.9584 48.1431 73.7099C46.5326 73.4615 44.8877 73.8318 43.539 74.7464V55.4446C43.5481 54.6725 43.4039 53.9063 43.1148 53.1903C42.8256 52.4743 42.3973 51.8229 41.8545 51.2737C41.3117 50.7245 40.6654 50.2885 39.9529 49.9909C39.2404 49.6933 38.4759 49.54 37.7038 49.54C36.9317 49.54 36.1672 49.6933 35.4547 49.9909C34.7422 50.2885 34.0958 50.7245 33.5531 51.2737C33.0103 51.8229 32.582 52.4743 32.2928 53.1903C32.0037 53.9063 31.8595 54.6725 31.8686 55.4446V83.4502C31.8704 85.6905 32.4228 87.8959 33.4772 89.8725L49.3136 119.515V135.789C49.3136 136.166 49.4636 136.528 49.7307 136.796C49.9977 137.063 50.3599 137.213 50.7376 137.213C51.1152 137.213 51.4774 137.063 51.7444 136.796C52.0114 136.528 52.1615 136.166 52.1615 135.789V119.157C52.1618 118.923 52.1042 118.692 51.9939 118.485L35.9882 88.5308C35.1544 86.967 34.7177 85.2224 34.7164 83.4502V55.4446C34.7099 55.0481 34.7823 54.6543 34.9295 54.2861C35.0767 53.918 35.2957 53.5828 35.5737 53.3001C35.8518 53.0174 36.1833 52.7929 36.549 52.6397C36.9147 52.4864 37.3073 52.4075 37.7038 52.4075C38.1003 52.4075 38.4929 52.4864 38.8586 52.6397C39.2243 52.7929 39.5558 53.0174 39.8338 53.3001C40.1119 53.5828 40.3309 53.918 40.4781 54.2861C40.6253 54.6543 40.6977 55.0481 40.6912 55.4446C40.6912 55.4446 40.6912 80.0621 40.6912 80.0711C40.6803 81.5361 41.172 82.9605 42.0842 84.1069L51.2925 95.7423C51.529 96.0319 51.8699 96.2168 52.2416 96.2572C52.6132 96.2975 52.9859 96.1901 53.279 95.958C53.5722 95.726 53.7623 95.388 53.8083 95.017C53.8544 94.646 53.7527 94.2717 53.5252 93.975L44.3169 82.3396C44.0225 81.9672 43.8043 81.5405 43.6747 81.0838C43.5452 80.6271 43.5069 80.1493 43.562 79.6778C43.6172 79.2063 43.7646 78.7503 43.996 78.3357C44.2273 77.9212 44.5381 77.5563 44.9105 77.2619C45.6625 76.6672 46.62 76.3957 47.5722 76.507C48.0438 76.5622 48.4998 76.7096 48.9143 76.941C49.3288 77.1723 49.6937 77.4831 49.9882 77.8555L68.1484 100.794C70.7889 104.138 72.2279 108.274 72.2339 112.536V135.789C72.2339 136.166 72.3839 136.528 72.6509 136.796C72.918 137.063 73.2801 137.213 73.6578 137.213C74.0354 137.213 74.3976 137.063 74.6646 136.796C74.9317 136.528 75.0817 136.166 75.0817 135.789V112.536C75.0745 107.633 73.4189 102.876 70.3811 99.0287L52.2209 76.0857Z" fill="white"/>
<path d="M121.637 49.6089C120.09 49.6107 118.607 50.226 117.513 51.3201C116.419 52.4141 115.803 53.8974 115.802 55.4446V74.7456C114.453 73.8315 112.808 73.4616 111.198 73.7102C109.588 73.9587 108.131 74.8074 107.121 76.0857L88.9603 99.0263C85.9227 102.874 84.2671 107.631 84.2598 112.533V135.789C84.2598 136.166 84.4098 136.528 84.6768 136.796C84.9439 137.063 85.306 137.213 85.6837 137.213C86.0613 137.213 86.4235 137.063 86.6905 136.796C86.9576 136.528 87.1076 136.166 87.1076 135.789V112.536C87.1137 108.274 88.5526 104.139 91.193 100.794L109.353 77.8555C109.948 77.1038 110.817 76.6193 111.77 76.5086C112.722 76.3978 113.679 76.6698 114.431 77.2647C115.182 77.8597 115.667 78.7289 115.778 79.681C115.888 80.6332 115.616 81.5904 115.021 82.342L105.813 93.9718C105.694 94.118 105.604 94.2866 105.551 94.4676C105.497 94.6486 105.48 94.8385 105.5 95.0263C105.521 95.214 105.578 95.3958 105.669 95.5611C105.761 95.7264 105.884 95.8718 106.032 95.989C106.18 96.1062 106.35 96.1928 106.532 96.2437C106.714 96.2946 106.904 96.3089 107.091 96.2856C107.279 96.2624 107.46 96.2021 107.623 96.1082C107.787 96.0144 107.931 95.8889 108.046 95.7391L117.254 84.1036C118.168 82.9553 118.66 81.528 118.648 80.0605C118.648 80.054 118.648 55.4413 118.648 55.4413C118.648 54.6489 118.963 53.889 119.523 53.3286C120.083 52.7683 120.843 52.4535 121.636 52.4535C122.428 52.4535 123.188 52.7683 123.748 53.3286C124.309 53.889 124.623 54.6489 124.623 55.4413V83.4502C124.622 85.2224 124.185 86.967 123.351 88.5308L107.348 118.485C107.238 118.692 107.18 118.923 107.18 119.157V135.789C107.18 136.166 107.33 136.528 107.597 136.796C107.864 137.063 108.226 137.213 108.604 137.213C108.982 137.213 109.344 137.063 109.611 136.796C109.878 136.528 110.028 136.166 110.028 135.789V119.515L125.865 89.8742C126.918 87.8972 127.471 85.6919 127.473 83.4519V55.4446C127.471 53.8974 126.856 52.4141 125.762 51.3201C124.668 50.226 123.184 49.6107 121.637 49.6089Z" fill="white"/>
<path d="M86.8828 77.0589L90.8861 79.866C91.643 80.3976 92.5213 80.7305 93.4404 80.8341C94.3595 80.9377 95.2899 80.8088 96.1461 80.4591C97.0024 80.1094 97.7571 79.5502 98.3409 78.8328C98.9247 78.1154 99.3189 77.2629 99.4874 76.3534C102.425 60.0369 94.5818 53.2558 89.646 50.6659C88.9355 50.2909 88.1397 50.107 87.3366 50.1321C86.5336 50.1572 85.7508 50.3905 85.0651 50.8091C84.3677 51.2266 83.7909 51.8183 83.3915 52.5262C82.992 53.2341 82.7836 54.0337 82.7868 54.8465V56.4429L81.0968 55.2599V43.0304C81.0968 42.6528 80.9468 42.2906 80.6798 42.0236C80.4127 41.7565 80.0505 41.6065 79.6729 41.6065C79.2952 41.6065 78.9331 41.7565 78.666 42.0236C78.399 42.2906 78.249 42.6528 78.249 43.0304V55.2599L76.5598 56.4429V54.8465C76.563 54.0337 76.3546 53.2341 75.9551 52.5262C75.5557 51.8183 74.9789 51.2266 74.2815 50.8091C73.5958 50.3905 72.813 50.1572 72.01 50.1321C71.2069 50.107 70.4111 50.2909 69.7006 50.6659C64.7632 53.2558 56.9203 60.0361 59.8584 76.3534C60.0207 77.2601 60.4096 78.111 60.989 78.827C61.5685 79.543 62.3196 80.1009 63.1725 80.4486C64.0316 80.8056 64.9671 80.9394 65.8919 80.8376C66.8166 80.7357 67.7005 80.4015 68.4613 79.866L72.4638 77.0589C73.7287 76.1713 74.7614 74.9924 75.4746 73.6216C76.1878 72.2509 76.5606 70.7286 76.5614 69.1834V59.9206L79.6729 57.7391L82.786 59.9206V69.1834C82.7868 70.7285 83.1595 72.2507 83.8726 73.6215C84.5856 74.9922 85.6181 76.1712 86.8828 77.0589ZM85.6338 54.8457C85.6326 54.5235 85.7154 54.2066 85.8739 53.9261C86.0324 53.6456 86.2612 53.4112 86.5378 53.246C86.822 53.0712 87.1488 52.9778 87.4825 52.9759C87.7754 52.9768 88.0636 53.0492 88.3222 53.1866C93.5053 55.9084 99.1692 62.0483 96.6835 75.8481C96.6085 76.2853 96.4223 76.6959 96.1429 77.0405C95.8635 77.385 95.5002 77.6519 95.0879 77.8156C94.6712 77.9893 94.2172 78.0547 93.7684 78.0054C93.3196 77.9562 92.8907 77.794 92.5215 77.534L88.5183 74.7277C87.6278 74.1029 86.9008 73.2729 86.3988 72.3079C85.8967 71.3429 85.6344 70.2712 85.6338 69.1834V54.8457ZM73.712 69.1834C73.7115 70.2713 73.449 71.3431 72.9468 72.3081C72.4446 73.2732 71.7174 74.1031 70.8267 74.7277L66.8242 77.534C66.455 77.794 66.0259 77.9562 65.5769 78.0054C65.128 78.0547 64.674 77.9893 64.2571 77.8156C63.8451 77.6515 63.482 77.3845 63.2026 77.04C62.9233 76.6956 62.737 76.2852 62.6615 75.8481C60.1766 62.0491 65.8405 55.9084 71.0228 53.1875C71.2992 53.0396 71.6097 52.9673 71.9229 52.9777C72.2362 52.9881 72.5412 53.081 72.8072 53.2469C73.0839 53.412 73.3128 53.6463 73.4715 53.9268C73.6301 54.2073 73.713 54.5243 73.712 54.8465V69.1834Z" fill="white"/>
<defs>
<linearGradient id="paint0_linear" x1="81" y1="0" x2="81" y2="162" gradientUnits="userSpaceOnUse">
<stop stop-color="white" stop-opacity="0.43"/>
<stop offset="1" stop-color="white" stop-opacity="0"/>
</linearGradient>
</defs>
</svg>
