<svg width="933" height="566" viewBox="0 0 933 566" fill="none" xmlns="http://www.w3.org/2000/svg">
<g opacity="0.502">
<g style="mix-blend-mode:multiply" opacity="0.102">
<path d="M514.288 109.656L266.862 251.637L657.362 474.733L907.064 330.502L514.288 109.656Z" fill="#D1D3D4"/>
</g>
<g style="mix-blend-mode:multiply" opacity="0.122">
<path d="M514.417 110.023L267.607 251.651L657.14 474.202L906.226 330.325L514.417 110.023Z" fill="#D0D2D3"/>
</g>
<g style="mix-blend-mode:multiply" opacity="0.141">
<path d="M514.553 110.391L268.352 251.665L656.926 473.664L905.396 330.148L514.553 110.391Z" fill="#CFD1D2"/>
</g>
<g style="mix-blend-mode:multiply" opacity="0.165">
<path d="M514.689 110.752L269.089 251.686L656.703 473.134L904.566 329.971L514.689 110.752Z" fill="#CED0D1"/>
</g>
<g style="mix-blend-mode:multiply" opacity="0.184">
<path d="M514.818 111.12L269.833 251.7L656.489 472.603L903.728 329.787L514.818 111.12Z" fill="#CDCFD0"/>
</g>
<g style="mix-blend-mode:multiply" opacity="0.208">
<path d="M514.954 111.488L270.578 251.715L656.267 472.065L902.898 329.61L514.954 111.488Z" fill="#CCCECF"/>
</g>
<g style="mix-blend-mode:multiply" opacity="0.227">
<path d="M515.082 111.849L271.315 251.728L656.045 471.535L902.06 329.433L515.082 111.849Z" fill="#CBCDCE"/>
</g>
<g style="mix-blend-mode:multiply" opacity="0.251">
<path d="M515.219 112.217L272.06 251.75L655.83 471.004L901.229 329.256L515.219 112.217Z" fill="#CACCCD"/>
</g>
<g style="mix-blend-mode:multiply" opacity="0.271">
<path d="M515.354 112.584L272.804 251.764L655.608 470.473L900.399 329.079L515.354 112.584Z" fill="#C9CBCC"/>
</g>
<g style="mix-blend-mode:multiply" opacity="0.294">
<path d="M515.483 112.945L273.542 251.778L655.393 469.936L899.561 328.903L515.483 112.945Z" fill="#C8CACB"/>
</g>
<g style="mix-blend-mode:multiply" opacity="0.314">
<path d="M515.619 113.313L274.286 251.799L655.171 469.405L898.731 328.726L515.619 113.313Z" fill="#C7C9CA"/>
</g>
<g style="mix-blend-mode:multiply" opacity="0.337">
<path d="M515.755 113.681L275.023 251.813L654.956 468.874L897.9 328.549L515.755 113.681Z" fill="#C6C8C9"/>
</g>
<g style="mix-blend-mode:multiply" opacity="0.357">
<path d="M515.884 114.042L275.768 251.828L654.735 468.337L897.063 328.365L515.884 114.042Z" fill="#C5C7C8"/>
</g>
<g style="mix-blend-mode:multiply" opacity="0.38">
<path d="M516.02 114.41L276.513 251.842L654.52 467.806L896.232 328.188L516.02 114.41Z" fill="#C4C6C7"/>
</g>
<g style="mix-blend-mode:multiply" opacity="0.4">
<path d="M516.149 114.778L277.25 251.863L654.298 467.276L895.402 328.011L516.149 114.778Z" fill="#C3C5C6"/>
</g>
<g style="mix-blend-mode:multiply" opacity="0.42">
<path d="M516.285 115.139L277.995 251.877L654.083 466.745L894.564 327.834L516.285 115.139Z" fill="#C2C4C5"/>
</g>
<g style="mix-blend-mode:multiply" opacity="0.443">
<path d="M516.421 115.507L278.739 251.891L653.861 466.207L893.734 327.658L516.421 115.507Z" fill="#C1C3C4"/>
</g>
<g style="mix-blend-mode:multiply" opacity="0.463">
<path d="M516.55 115.875L279.477 251.913L653.647 465.677L892.903 327.481L516.55 115.875Z" fill="#C0C2C3"/>
</g>
<g style="mix-blend-mode:multiply" opacity="0.486">
<path d="M516.686 116.235L280.221 251.927L653.425 465.146L892.066 327.304L516.686 116.235Z" fill="#BFC1C2"/>
</g>
<g style="mix-blend-mode:multiply" opacity="0.506">
<path d="M516.822 116.603L280.966 251.941L653.203 464.608L891.235 327.12L516.822 116.603Z" fill="#BEC0C1"/>
</g>
<g style="mix-blend-mode:multiply" opacity="0.529">
<path d="M516.951 116.964L281.703 251.955L652.988 464.077L890.405 326.943L516.951 116.964Z" fill="#BDBFC0"/>
</g>
<g style="mix-blend-mode:multiply" opacity="0.549">
<path d="M517.087 117.332L282.448 251.976L652.766 463.547L889.567 326.766L517.087 117.332Z" fill="#BDBFC0"/>
</g>
<g style="mix-blend-mode:multiply" opacity="0.573">
<path d="M517.216 117.7L283.192 251.99L652.551 463.016L888.737 326.589L517.216 117.7Z" fill="#BCBEBF"/>
</g>
<g style="mix-blend-mode:multiply" opacity="0.592">
<path d="M517.352 118.061L283.93 252.004L652.329 462.479L887.906 326.412L517.352 118.061Z" fill="#BBBDBE"/>
</g>
<g style="mix-blend-mode:multiply" opacity="0.616">
<path d="M517.488 118.428L284.674 252.026L652.115 461.948L887.069 326.235L517.488 118.428Z" fill="#BABCBD"/>
</g>
<g style="mix-blend-mode:multiply" opacity="0.635">
<path d="M517.617 118.796L285.412 252.04L651.893 461.417L886.238 326.058L517.617 118.796Z" fill="#B9BBBC"/>
</g>
<g style="mix-blend-mode:multiply" opacity="0.659">
<path d="M517.752 119.157L286.156 252.054L651.678 460.88L885.408 325.882L517.752 119.157Z" fill="#B8BABB"/>
</g>
<g style="mix-blend-mode:multiply" opacity="0.678">
<path d="M517.881 119.525L286.9 252.068L651.456 460.349L884.57 325.698L517.881 119.525Z" fill="#B7B9BA"/>
</g>
<g style="mix-blend-mode:multiply" opacity="0.702">
<path d="M518.018 119.893L287.638 252.089L651.241 459.818L883.74 325.521L518.018 119.893Z" fill="#B6B8B9"/>
</g>
<g style="mix-blend-mode:multiply" opacity="0.722">
<path d="M518.153 120.254L288.382 252.104L651.019 459.288L882.909 325.344L518.153 120.254Z" fill="#B5B7B8"/>
</g>
<g style="mix-blend-mode:multiply" opacity="0.741">
<path d="M518.282 120.622L289.127 252.118L650.804 458.75L882.072 325.167L518.282 120.622Z" fill="#B4B6B7"/>
</g>
<g style="mix-blend-mode:multiply" opacity="0.765">
<path d="M518.418 120.99L289.864 252.139L650.582 458.22L881.241 324.99L518.418 120.99Z" fill="#B3B5B6"/>
</g>
<g style="mix-blend-mode:multiply" opacity="0.784">
<path d="M518.554 121.351L290.609 252.153L650.36 457.689L880.411 324.813L518.554 121.351Z" fill="#B2B4B5"/>
</g>
<g style="mix-blend-mode:multiply" opacity="0.808">
<path d="M518.683 121.719L291.354 252.167L650.146 457.151L879.573 324.637L518.683 121.719Z" fill="#B1B3B4"/>
</g>
<g style="mix-blend-mode:multiply" opacity="0.827">
<path d="M518.819 122.086L292.091 252.189L649.924 456.621L878.743 324.46L518.819 122.086Z" fill="#B0B2B3"/>
</g>
<g style="mix-blend-mode:multiply" opacity="0.851">
<path d="M518.948 122.447L292.835 252.203L649.709 456.09L877.912 324.276L518.948 122.447Z" fill="#AFB1B2"/>
</g>
<g style="mix-blend-mode:multiply" opacity="0.871">
<path d="M519.084 122.815L293.573 252.217L649.487 455.559L877.074 324.099L519.084 122.815Z" fill="#AEB0B1"/>
</g>
<g style="mix-blend-mode:multiply" opacity="0.894">
<path d="M519.22 123.183L294.317 252.231L649.272 455.022L876.244 323.922L519.22 123.183Z" fill="#ADAFB0"/>
</g>
<g style="mix-blend-mode:multiply" opacity="0.914">
<path d="M519.349 123.544L295.062 252.252L649.05 454.491L875.414 323.745L519.349 123.544Z" fill="#ACAEAF"/>
</g>
<g style="mix-blend-mode:multiply" opacity="0.937">
<path d="M519.485 123.912L295.799 252.266L648.836 453.96L874.576 323.568L519.485 123.912Z" fill="#ABADAE"/>
</g>
<g style="mix-blend-mode:multiply" opacity="0.957">
<path d="M519.621 124.28L296.544 252.28L648.614 453.43L873.746 323.391L519.621 124.28Z" fill="#AAACAD"/>
</g>
<g style="mix-blend-mode:multiply" opacity="0.98">
<path d="M519.75 124.64L297.289 252.302L648.399 452.892L872.915 323.214L519.75 124.64Z" fill="#A9ABAC"/>
</g>
<g style="mix-blend-mode:multiply" opacity="0.502">
<path d="M519.886 125.008L298.026 252.316L648.177 452.362L872.078 323.03L519.886 125.008Z" fill="#A8AAAB"/>
</g>
</g>
<path d="M657.362 471.62L907.064 327.389L815.714 253.646L721.593 222.594L629.349 151.893L514.288 106.542L266.862 248.524L380.019 293.874L473.71 366.216L565.983 397.042L657.362 471.62Z" fill="white"/>
<path d="M383.72 182.313C383.469 182.313 383.233 182.186 383.097 181.96C382.897 181.627 383.018 181.188 383.355 180.99L512.297 107L512.626 107.127L577.144 132.562C577.509 132.703 577.688 133.114 577.545 133.482C577.395 133.843 576.987 134.019 576.614 133.878L512.419 108.571L384.078 182.214C383.963 182.285 383.842 182.313 383.72 182.313Z" fill="url(#paint0_linear)"/>
<path d="M569.527 390.752L477.153 359.898L383.641 287.691L283.092 247.391L514.867 114.388L625.755 158.098L718.164 228.926L812.199 259.949L894.543 326.419L658.064 463.016L569.527 390.752Z" fill="url(#paint1_linear)"/>
<path d="M522.342 188.011L513.751 193.197L524.246 205.458L539.524 197.916L522.342 188.011Z" fill="#D1D3D4"/>
<path d="M464.382 350.036L517.023 317.37L534.899 330.509C535.078 330.636 535.278 330.742 535.493 330.813L546.539 334.506L519.586 350.078L521.755 353.743L552.775 335.822C553.498 335.405 553.913 334.605 553.827 333.777C553.742 332.95 553.176 332.249 552.381 331.98L537.19 326.9L520.924 314.944L536.366 305.364L534.083 301.77L460.781 347.255L464.382 350.036Z" fill="#D1D3D4"/>
<path d="M348.369 226.457L300.589 254.403L305.593 256.405L353.287 228.516L353.101 228.204L374.829 236.22L376.325 232.244L335.647 217.231L330.843 219.99L348.369 226.457Z" fill="#D1D3D4"/>
<path fill-rule="evenodd" clip-rule="evenodd" d="M377.664 193.126L382.245 190.495L394.337 195.822L425.901 177.109L428.107 180.752L399.127 197.937L473.366 230.652L487.706 221.766L439.404 201.397L441.093 197.499L501.229 222.849C501.451 222.94 501.659 223.075 501.845 223.245L517.796 237.84L563.141 210.432L549.918 198.914L521.905 181.311L524.21 177.731L552.367 195.419C552.46 195.475 552.553 195.546 552.632 195.617L578.884 218.49C579.392 218.936 579.664 219.594 579.6 220.266C579.543 220.938 579.163 221.54 578.583 221.893L531.52 250.399L540.504 258.62L537.583 261.733L499.196 226.605L492.517 223.789L474.676 234.855C474.333 235.067 473.939 235.173 473.538 235.173C473.237 235.173 472.944 235.117 472.665 234.996L377.664 193.126ZM521.074 240.84L528.241 247.399L573.858 219.778L566.513 213.368L521.074 240.84Z" fill="#D1D3D4"/>
<path d="M735.26 385.524L732.282 388.587L752.972 408.199L756.824 405.971L735.26 385.524Z" fill="#D1D3D4"/>
<path d="M576.014 375.626L573.665 372.067L553.19 385.298L558.359 387.024L576.014 375.626Z" fill="#D1D3D4"/>
<path d="M762.679 306.284C762.815 307.09 763.409 307.741 764.204 307.968L797.616 317.399L798.79 313.316L766.681 304.253L764.848 293.584L817.138 263.933L813.573 261.06L764.075 289.127L763.094 283.403C762.98 282.738 762.558 282.172 761.949 281.868L751.805 276.746L792.669 253.504L787.221 251.707L747.237 274.446L716.131 258.754L714.184 262.539L759.035 285.165L762.679 306.284Z" fill="#D1D3D4"/>
<path d="M647.826 175.007L631.518 184.283L633.659 187.962L651.492 177.823L647.826 175.007Z" fill="#D1D3D4"/>
<path d="M577.223 252.153L635.455 249.797L688.433 238.951L714.205 252.153L669.339 279.512L653.11 275.267L579.614 301.211L557.178 260.176L577.223 252.153Z" fill="#CFE4BD"/>
<path d="M513.271 112.068L420.919 166.546L455.283 183.526L493.942 167.961L521.146 170.083L566.964 145.321L562.669 131.878L513.271 112.068Z" fill="#CFE4BD"/>
<path d="M599.896 313.706L554.794 329.271L555.51 338.468L561.953 356.156L597.748 371.721L604.192 375.966L607.771 378.796L673.635 392.946L689.385 403.558L722.317 383.748L706.567 357.571L722.317 327.148L707.283 315.121L655.021 291.773L599.896 313.706Z" fill="#CFE4BD"/>
<path d="M696.88 415.628L803.329 350.574C804.625 349.781 805.398 348.359 805.362 346.845L803.995 296.11L832.953 276.696L826.009 271.093L797.222 290.387C796.012 291.2 795.304 292.566 795.339 294.009L796.707 344.638L689.986 409.855L690.072 409.989L674.959 397.481C674.401 397.014 673.735 396.703 673.019 396.561L604.149 383.366L597.204 376.503C596.768 376.072 596.245 375.739 595.665 375.527L507.623 343.251L436.075 281.797L520.495 231.742C522.277 230.688 523.036 228.516 522.299 226.598L508.339 190.219L569.427 156.379L601.314 168.852L691.74 239.22C691.948 239.383 692.17 239.524 692.399 239.645L717.026 252.422L666.333 283.941L670.907 291.122L752.65 240.303L742.112 236.822L724.665 247.675L725.03 246.981L696.744 232.308L606.132 161.798C605.81 161.544 605.445 161.338 605.058 161.19L570.694 147.747C569.492 147.273 568.139 147.365 567.015 147.988L502.704 183.604L454.03 186.992L419.179 169.298L410.359 174.364L444.351 191.627L324.178 263.855L334.101 267.831L454.474 195.475L499.948 192.306L512.992 226.287L426.582 277.524C425.408 278.225 424.635 279.441 424.513 280.793C424.398 282.144 424.935 283.474 425.973 284.366L502.576 350.163C502.969 350.503 503.42 350.765 503.9 350.941L530.21 360.585L512.913 371.841L523.237 375.294L540.204 364.25L591.792 383.161L599.009 390.293C599.61 390.887 600.383 391.297 601.228 391.46L670.299 404.69L706.767 434.886L714.642 430.337L696.88 415.628Z" fill="#FEE2A6"/>
<path fill-rule="evenodd" clip-rule="evenodd" d="M803.107 379.234L792.726 385.234L712.014 313.571L654.785 288.66L555.266 323.292C553.39 323.95 551.293 323.589 549.746 322.344L512.834 292.686C509.878 293.549 506.634 294.009 503.291 294.009C498.938 294.009 494.729 293.238 491.114 291.809L433.647 326.306L423.997 318.849L481.578 284.281C480.468 282.406 479.852 280.361 479.852 278.246C479.852 274.991 481.27 271.914 483.804 269.36L462.334 252.111L353.501 206.993L365.915 199.862L467.517 241.986C468.025 242.192 468.491 242.475 468.92 242.814L494.772 263.586C497.385 262.943 500.191 262.603 503.069 262.603C508.41 262.603 513.507 263.77 517.588 265.879L563.478 240.833C564.201 240.444 564.995 240.203 565.811 240.147L630.344 235.293L684.788 203.343L694.518 210.8L635.033 245.701C634.281 246.146 633.429 246.415 632.549 246.479L567.923 251.34L525.756 274.354C526.236 275.649 526.515 276.993 526.515 278.373C526.515 281.309 525.377 284.111 523.294 286.502L554.486 311.562L653.117 277.241C654.491 276.76 655.995 276.817 657.326 277.397L717.462 303.574C718.021 303.815 718.536 304.147 718.987 304.544L803.107 379.234ZM515.061 278.373C515.061 278.083 514.474 277.128 512.727 276.13C510.271 274.729 506.749 273.923 503.069 273.923C499.432 273.923 495.967 274.708 493.562 276.088C491.872 277.043 491.307 277.97 491.307 278.246C491.307 278.529 491.894 279.491 493.641 280.489C496.096 281.889 499.611 282.689 503.291 282.689C506.928 282.689 510.4 281.904 512.806 280.531C514.488 279.569 515.061 278.642 515.061 278.373Z" fill="url(#paint2_linear)"/>
<path d="M804.646 377.381L789.612 362.523L809.657 349.788L833.282 288.943L841.873 285.406L892.703 326.441L804.646 377.381Z" fill="#CFE4BD"/>
<path d="M423.066 315.121L386.555 288.236L382.976 261.351L367.226 251.446L401.589 230.221L454.566 250.738L450.987 260.643L423.066 276.916L410.896 284.698L429.51 289.651L435.237 310.168L423.066 315.121Z" fill="#CFE4BD"/>
<path d="M737.115 377.147L762.887 362.056L731.86 333.756L722.796 339.883L739.978 358.752L728.524 365.827L737.115 377.147Z" fill="#D1D3D4"/>
<path d="M674.114 448.838L699.887 433.747L676.262 413.23L667.192 419.364L665.523 437.518L674.114 448.838Z" fill="#D1D3D4"/>
<path d="M712.774 270.548L692.249 283.283L705.836 290.811L718.78 287.033L733.292 295.077L749.042 286.113L712.774 270.548Z" fill="#D1D3D4"/>
<path d="M471.748 198.383L466.021 202.161L493.226 213.948L498.953 208.288L493.705 198.383H471.748Z" fill="#D1D3D4"/>
<path d="M491.794 321.962L512.319 309.227L504.201 301.211L495.61 305.923L487.498 298.381L472.228 307.338L491.794 321.962Z" fill="#D1D3D4"/>
<path d="M632.112 228.098L651.678 214.896L632.112 197.916L625.433 204.043L635.928 212.066L626.864 219.608L632.112 228.098Z" fill="#D1D3D4"/>
<path d="M776.726 349.321L791.044 340.357L790.564 317.717L779.589 315.828L776.726 330.452L771.478 334.223L748.089 313.946L740.451 318.191L776.726 349.321Z" fill="#D1D3D4"/>
<path d="M554.794 307.338L570.544 299.322L552.41 263.947L538.092 271.496L537.612 281.868L529.973 287.528L554.794 307.338Z" fill="#D1D3D4"/>
<g style="mix-blend-mode:multiply">
<path d="M721.594 222.594L629.349 151.893L380.019 293.874L473.71 366.216L721.594 222.594Z" fill="#C8CACC"/>
</g>
<g style="mix-blend-mode:multiply">
<path d="M565.983 397.042L657.362 471.62L907.064 327.389L815.714 253.646L565.983 397.042Z" fill="#C8CACC"/>
</g>
<path d="M642.972 501.483L642.586 501.172L602.76 468.662C602.452 468.414 602.409 467.969 602.659 467.665C602.91 467.36 603.368 467.325 603.669 467.573L643.108 499.764L813.709 401.23C814.046 401.025 814.483 401.145 814.683 401.485C814.883 401.817 814.769 402.249 814.432 402.447L642.972 501.483Z" fill="url(#paint3_linear)"/>
<path style="mix-blend-mode:multiply" d="M774.699 271.638C774.699 282.017 758.004 290.422 737.422 290.422C716.832 290.422 700.145 282.017 700.145 271.638C700.145 261.266 716.832 252.854 737.422 252.854C758.004 252.854 774.699 261.266 774.699 271.638Z" fill="url(#paint4_radial)"/>
<path d="M737.995 131.178C725.846 124.244 714.964 124.039 707.425 129.232L698.698 133.258L699.772 138.79C697.896 143.064 696.837 148.264 696.837 154.362C696.837 172.022 706.387 199.869 716.288 224.009L726.604 277.269L737.995 271.645C765.428 249.203 779.145 225.763 779.145 201.333C779.145 175.552 760.717 144.146 737.995 131.178Z" fill="url(#paint5_linear)"/>
<path d="M767.762 206.958C767.762 231.388 754.045 254.827 726.612 277.269C699.171 223.521 685.454 184.424 685.454 159.987C685.454 134.213 703.882 123.834 726.612 136.802C749.335 149.771 767.762 181.177 767.762 206.958Z" fill="url(#paint6_linear)"/>
<path d="M729.217 135.394C717.348 128.624 706.681 128.27 699.164 133.102C706.452 129.848 716.052 130.774 726.604 136.802C749.335 149.771 767.762 181.177 767.762 206.958C767.762 238.364 737.565 267.555 728.917 275.267C729.038 275.508 729.139 275.706 729.217 275.861C756.651 253.42 770.375 229.98 770.375 205.55C770.375 179.776 751.948 148.363 729.217 135.394Z" fill="url(#paint7_radial)"/>
<path d="M744.502 193.685C744.502 204.892 736.491 209.406 726.612 203.767C716.725 198.129 708.714 184.474 708.714 173.26C708.714 162.053 716.725 157.539 726.612 163.178C736.491 168.817 744.502 182.479 744.502 193.685Z" fill="url(#paint8_linear)"/>
<g style="mix-blend-mode:multiply">
<path d="M732.132 201.249C722.245 195.61 714.234 181.948 714.234 170.741C714.234 166.305 715.508 162.937 717.634 160.808C712.308 161.282 708.707 165.76 708.707 173.26C708.707 184.474 716.725 198.128 726.612 203.767C732.575 207.177 737.852 206.859 741.102 203.619C738.467 203.852 735.403 203.116 732.132 201.249Z" fill="#D1D3D4"/>
</g>
<rect x="301" y="277" width="630" height="276" fill="url(#paint9_linear)"/>
<defs>
<linearGradient id="paint0_linear" x1="376.944" y1="137.034" x2="568.352" y2="89.3355" gradientUnits="userSpaceOnUse">
<stop offset="0.01" stop-color="#0A7DCD"/>
<stop offset="0.47" stop-color="#5CA7DC"/>
<stop offset="1" stop-color="white"/>
</linearGradient>
<linearGradient id="paint1_linear" x1="512.14" y1="688.696" x2="258.237" y2="194.763" gradientUnits="userSpaceOnUse">
<stop offset="0.076" stop-color="#F0EFF2"/>
<stop offset="1" stop-color="white"/>
</linearGradient>
<linearGradient id="paint2_linear" x1="571.55" y1="386.855" x2="191.581" y2="224.688" gradientUnits="userSpaceOnUse">
<stop offset="0.035" stop-color="#FFA98C"/>
<stop offset="1" stop-color="#FEECA8"/>
</linearGradient>
<linearGradient id="paint3_linear" x1="820.4" y1="464.027" x2="609.411" y2="513.184" gradientUnits="userSpaceOnUse">
<stop stop-color="white"/>
<stop offset="1" stop-color="#0A7DCD"/>
</linearGradient>
<radialGradient id="paint4_radial" cx="0" cy="0" r="1" gradientUnits="userSpaceOnUse" gradientTransform="translate(738.146 271.64) scale(37.2766 36.8388)">
<stop stop-color="#C7C8C9"/>
<stop offset="1" stop-color="white"/>
</radialGradient>
<linearGradient id="paint5_linear" x1="723.681" y1="278.397" x2="666.158" y2="146.152" gradientUnits="userSpaceOnUse">
<stop offset="0.04" stop-color="#07568D"/>
<stop offset="0.63" stop-color="#0A7DCD"/>
<stop offset="0.87" stop-color="#0971B9"/>
</linearGradient>
<linearGradient id="paint6_linear" x1="613.48" y1="195.027" x2="727.646" y2="100.898" gradientUnits="userSpaceOnUse">
<stop offset="0.04" stop-color="#07568D"/>
<stop offset="1" stop-color="#0A7DCD"/>
</linearGradient>
<radialGradient id="paint7_radial" cx="0" cy="0" r="1" gradientUnits="userSpaceOnUse" gradientTransform="translate(747.102 182.296) scale(57.9901 57.3089)">
<stop stop-color="white"/>
<stop offset="1" stop-color="#CED8DF"/>
</radialGradient>
<linearGradient id="paint8_linear" x1="725.926" y1="214.87" x2="702.26" y2="176.906" gradientUnits="userSpaceOnUse">
<stop stop-color="#D4D1D8"/>
<stop offset="1" stop-color="white"/>
</linearGradient>
<linearGradient id="paint9_linear" x1="611" y1="263.123" x2="601.497" y2="535.847" gradientUnits="userSpaceOnUse">
<stop stop-color="white" stop-opacity="0"/>
<stop offset="1" stop-color="white"/>
</linearGradient>
</defs>
</svg>
