<svg width="44" height="44" viewBox="0 0 44 44" fill="none" xmlns="http://www.w3.org/2000/svg">
<path d="M0.333497 6.8335L15.5002 0.333496L28.5002 6.8335L42.1567 0.981329C42.3215 0.910661 42.5013 0.882029 42.68 0.898005C42.8586 0.91398 43.0305 0.974063 43.1802 1.07286C43.3299 1.17166 43.4527 1.30608 43.5377 1.46406C43.6226 1.62204 43.667 1.79863 43.6668 1.978V37.1668L28.5002 43.6668L15.5002 37.1668L1.84366 43.019C1.67881 43.0897 1.49899 43.1183 1.32034 43.1023C1.14169 43.0863 0.969801 43.0263 0.820102 42.9275C0.670402 42.8287 0.547575 42.6942 0.462645 42.5363C0.377714 42.3783 0.333337 42.2017 0.333497 42.0223V6.8335ZM30.6668 38.0227L39.3335 34.309V6.905L30.6668 10.6187V38.0227ZM26.3335 37.7388V10.5948L17.6668 6.2615V33.4055L26.3335 37.7388ZM13.3335 33.3817V5.97766L4.66683 9.69133V37.0953L13.3335 33.3817Z" fill="white"/>
</svg>
