<svg width="36" height="44" viewBox="0 0 36 44" fill="none" xmlns="http://www.w3.org/2000/svg">
<path d="M28.168 27.6238C30.0488 25.6366 31.3061 23.1418 31.7844 20.4478C32.2627 17.7538 31.9412 14.9786 30.8594 12.4654C29.7777 9.95217 27.9832 7.81101 25.6978 6.30656C23.4123 4.80212 20.7362 4.00034 18 4.00034C15.2639 4.00034 12.5877 4.80212 10.3022 6.30656C8.01682 7.81101 6.22234 9.95217 5.14059 12.4654C4.05885 14.9786 3.73727 17.7538 4.2156 20.4478C4.69393 23.1418 5.9512 25.6366 7.83201 27.6238C8.91134 25.9015 10.4107 24.4818 12.1893 23.4981C13.968 22.5143 15.9675 21.9987 18 21.9998C20.0326 21.9987 22.0321 22.5143 23.8107 23.4981C25.5893 24.4818 27.0887 25.9015 28.168 27.6238ZM10.77 30.5698L18 37.7978L25.23 30.5698C24.5816 29.201 23.558 28.0443 22.2781 27.2343C20.9982 26.4243 19.5147 25.9943 18 25.9943C16.4853 25.9943 15.0018 26.4243 13.7219 27.2343C12.442 28.0443 11.4184 29.201 10.77 30.5698ZM18 43.4558L5.27201 30.7278C2.75469 28.2105 1.04037 25.0032 0.345857 21.5115C-0.348659 18.0199 0.00781369 14.4007 1.3702 11.1116C2.73258 7.82259 5.03969 5.01139 7.99977 3.03353C10.9598 1.05568 14.44 0 18 0C21.5601 0 25.0402 1.05568 28.0002 3.03353C30.9603 5.01139 33.2674 7.82259 34.6298 11.1116C35.9922 14.4007 36.3487 18.0199 35.6542 21.5115C34.9596 25.0032 33.2453 28.2105 30.728 30.7278L18 43.4558ZM18 15.9998C18.5304 15.9998 19.0391 15.7891 19.4142 15.4141C19.7893 15.039 20 14.5303 20 13.9998C20 13.4694 19.7893 12.9607 19.4142 12.5856C19.0391 12.2106 18.5304 11.9998 18 11.9998C17.4696 11.9998 16.9609 12.2106 16.5858 12.5856C16.2107 12.9607 16 13.4694 16 13.9998C16 14.5303 16.2107 15.039 16.5858 15.4141C16.9609 15.7891 17.4696 15.9998 18 15.9998ZM18 19.9998C16.4087 19.9998 14.8826 19.3677 13.7574 18.2425C12.6321 17.1173 12 15.5911 12 13.9998C12 12.4085 12.6321 10.8824 13.7574 9.7572C14.8826 8.63199 16.4087 7.99984 18 7.99984C19.5913 7.99984 21.1174 8.63199 22.2426 9.7572C23.3679 10.8824 24 12.4085 24 13.9998C24 15.5911 23.3679 17.1173 22.2426 18.2425C21.1174 19.3677 19.5913 19.9998 18 19.9998Z" fill="white"/>
</svg>
