<svg width="170" height="170" viewBox="0 0 170 170" fill="none" xmlns="http://www.w3.org/2000/svg">
<circle opacity="0.7" cx="85" cy="85" r="85" fill="url(#paint0_linear)"/>
<g clip-path="url(#clip0)">
<path d="M140.07 75.0086C140.07 60.8594 134.56 47.5572 124.555 37.552C114.55 27.547 101.248 22.037 87.0985 22.037C72.9493 22.037 59.6471 27.547 49.6419 37.552C39.637 47.5572 34.127 60.8594 34.127 75.0086C34.127 86.6961 37.8526 97.7591 44.901 107.031C42.5271 110.306 41.1353 114.317 41.1353 118.604V145.503C41.1353 146.862 42.2366 147.963 43.5948 147.963H130.602C131.96 147.963 133.062 146.862 133.062 145.503V118.601C133.062 114.315 131.67 110.304 129.297 107.029C136.345 97.7584 140.07 86.6958 140.07 75.0086ZM87.0985 26.956C113.595 26.956 135.151 48.5125 135.151 75.0086C135.151 85.3308 131.949 95.1154 125.881 103.384C123.1 101.075 119.673 99.5024 115.882 99.0016L115.254 98.9185C120.878 92.2799 124.042 83.772 124.042 75.0086C124.042 59.0986 113.912 45.0175 98.8357 39.9692C97.5479 39.538 96.1538 40.2321 95.7227 41.5206C95.2913 42.8084 95.9858 44.2022 97.2741 44.6336C110.343 49.0095 119.123 61.2165 119.123 75.0086C119.123 83.8327 115.621 92.0287 109.257 98.1261L107.369 97.8764C107.211 97.6656 107.019 97.477 106.794 97.3213L101.19 93.457C104.462 89.9861 106.475 85.3143 106.475 80.1787V75.0086C106.475 64.3248 97.7825 55.6327 87.0987 55.6327C76.4149 55.6327 67.7229 64.3248 67.7229 75.0086V80.1787C67.7229 85.3148 69.7355 89.9871 73.0088 93.4582L67.4071 97.3213C67.1793 97.4782 66.9857 97.6689 66.8279 97.8818L64.9446 98.1302C58.5782 92.0324 55.0742 83.8347 55.0742 75.0086C55.0742 61.1899 63.8767 48.9759 76.9782 44.6154C78.2669 44.1865 78.964 42.7939 78.535 41.5051C78.1061 40.2166 76.7148 39.5194 75.4247 39.9483C60.3104 44.9789 50.1555 59.0686 50.1555 75.0088C50.1555 83.7735 53.3208 92.2828 58.9464 98.922L58.3197 99.0046C54.5274 99.5049 51.0992 101.077 48.3175 103.386C42.2487 95.1169 39.0462 85.3316 39.0462 75.0088C39.0459 48.5125 60.6024 26.956 87.0985 26.956ZM87.0985 94.6358C79.127 94.6358 72.6416 88.1504 72.6416 80.1789V75.0088C72.6416 67.0374 79.127 60.5519 87.0985 60.5519C95.0699 60.5519 101.555 67.0374 101.555 75.0088V80.1789C101.555 88.1504 95.0699 94.6358 87.0985 94.6358ZM76.4432 97.065L83.4331 102.848L75.6493 110.511L71.7842 100.278L76.4432 97.065ZM85.6117 117.001H88.5882L94.461 143.044H79.7389L85.6117 117.001ZM88.7011 112.082H85.4961L84.517 108.683L87.1 106.14L89.6807 108.681L88.7011 112.082ZM90.7668 102.847L97.7569 97.0648L102.416 100.278L98.5508 110.51L90.7668 102.847ZM46.0543 118.604C46.0543 111.181 51.6036 104.852 58.9624 103.881L67.4631 102.76L72.3821 115.783C72.6758 116.561 73.343 117.138 74.1557 117.316C74.3308 117.354 74.5074 117.373 74.683 117.373C75.3217 117.373 75.9435 117.124 76.4085 116.666L80.5292 112.609L81.1074 114.616L74.6965 143.044H60.8808V127.48C60.8808 126.122 59.7794 125.021 58.4213 125.021C57.0632 125.021 55.9618 126.122 55.9618 127.48V143.044H46.0543V118.604ZM128.143 143.044H118.235V127.48C118.235 126.122 117.134 125.021 115.776 125.021C114.418 125.021 113.316 126.122 113.316 127.48V143.044H99.5034L93.0915 114.61L93.6688 112.607L97.7919 116.666C98.2569 117.123 98.8787 117.373 99.5174 117.373C99.6928 117.373 99.8696 117.354 100.045 117.316C100.857 117.137 101.525 116.56 101.818 115.782L106.739 102.755L115.238 103.878C122.595 104.85 128.143 111.18 128.143 118.6V143.044H128.143Z" fill="white"/>
<path d="M87.1304 42.9838C88.4887 42.9838 89.5899 41.8826 89.5899 40.5243C89.5899 39.166 88.4887 38.0648 87.1304 38.0648C85.7721 38.0648 84.6709 39.166 84.6709 40.5243C84.6709 41.8826 85.7721 42.9838 87.1304 42.9838Z" fill="white"/>
</g>
<defs>
<linearGradient id="paint0_linear" x1="85" y1="0" x2="85" y2="170" gradientUnits="userSpaceOnUse">
<stop stop-color="white" stop-opacity="0.43"/>
<stop offset="1" stop-color="white" stop-opacity="0"/>
</linearGradient>
<clipPath id="clip0">
<rect width="125.926" height="125.926" fill="white" transform="translate(24.1357 22.037)"/>
</clipPath>
</defs>
</svg>
